<?xml version="1.0" standalone="no"?>
<!DOCTYPE svg PUBLIC "-//W3C//DTD SVG 20010904//EN"
 "http://www.w3.org/TR/2001/REC-SVG-20010904/DTD/svg10.dtd">
<svg version="1.0" xmlns="http://www.w3.org/2000/svg"
 width="512.000000pt" height="512.000000pt" viewBox="0 0 512.000000 512.000000"
 preserveAspectRatio="xMidYMid meet">

<g transform="translate(0.000000,512.000000) scale(0.100000,-0.100000)"
fill="#000000" stroke="none">
<path d="M2330 4466 c-239 -32 -408 -83 -625 -192 -296 -147 -520 -340 -717
-615 -84 -117 -206 -360 -252 -499 -296 -908 115 -1888 972 -2319 511 -257
1142 -265 1658 -21 613 289 1020 851 1099 1520 86 722 -250 1433 -866 1833
-217 141 -459 234 -734 282 -125 22 -404 28 -535 11z m533 -336 c642 -126
1140 -625 1269 -1273 29 -147 32 -433 5 -572 -119 -609 -534 -1076 -1115
-1255 -171 -52 -259 -64 -462 -64 -156 0 -203 3 -300 23 -654 134 -1142 623
-1272 1274 -32 161 -32 433 0 594 91 453 349 824 747 1073 172 107 418 192
639 220 115 14 366 4 489 -20z"/>
<path d="M2490 3828 c-30 -15 -53 -37 -67 -63 l-23 -40 0 -598 c0 -489 3 -603
14 -630 8 -18 135 -152 282 -299 290 -287 293 -290 381 -273 49 9 109 69 118
118 17 87 12 94 -241 347 l-234 236 0 549 0 550 -23 40 c-24 43 -91 85 -137
85 -14 0 -46 -10 -70 -22z"/>
</g>
</svg>
