<?xml version="1.0" standalone="no"?>
<!DOCTYPE svg PUBLIC "-//W3C//DTD SVG 20010904//EN"
 "http://www.w3.org/TR/2001/REC-SVG-20010904/DTD/svg10.dtd">
<svg version="1.0" xmlns="http://www.w3.org/2000/svg"
 width="512.000000pt" height="512.000000pt" viewBox="0 0 512.000000 512.000000"
 preserveAspectRatio="xMidYMid meet">

<g transform="translate(0.000000,512.000000) scale(0.100000,-0.100000)"
fill="#000000" stroke="none">
<path d="M2330 4466 c-239 -32 -408 -83 -625 -192 -383 -191 -668 -475 -860
-859 -111 -223 -170 -423 -195 -665 -89 -856 425 -1682 1235 -1986 706 -264
1499 -93 2031 440 464 466 659 1130 518 1765 -39 172 -77 280 -160 446 -151
305 -365 550 -643 736 -232 156 -477 254 -766 304 -125 22 -404 28 -535 11z
m300 -638 c30 -15 53 -37 67 -63 l23 -40 0 -550 0 -549 234 -236 c253 -253
258 -260 241 -347 -9 -49 -69 -109 -118 -118 -88 -17 -91 -14 -381 273 -147
147 -274 281 -282 299 -11 27 -14 141 -14 630 l0 598 23 40 c24 43 91 85 137
85 14 0 46 -10 70 -22z"/>
</g>
</svg>
